<svg width="45" height="45" viewBox="0 0 45 45" fill="none" xmlns="http://www.w3.org/2000/svg">
<g id="bx:bxl-youtube">
<path id="Vector" d="M40.7636 12.1306C40.5501 11.3383 40.1327 10.6156 39.5531 10.0347C38.9734 9.45376 38.2518 9.03475 37.4599 8.81939C34.5236 8.01314 22.7767 8.00001 22.7767 8.00001C22.7767 8.00001 11.0317 7.98689 8.09362 8.75751C7.30223 8.98279 6.58203 9.40772 6.00218 9.99152C5.42232 10.5753 5.00228 11.2984 4.78237 12.0913C4.00799 15.0275 4.00049 21.1175 4.00049 21.1175C4.00049 21.1175 3.99299 27.2375 4.76174 30.1438C5.19299 31.7506 6.45862 33.02 8.06737 33.4531C11.0336 34.2594 22.7486 34.2725 22.7486 34.2725C22.7486 34.2725 34.4955 34.2856 37.4317 33.5169C38.2239 33.3019 38.9463 32.8839 39.5273 32.3041C40.1084 31.7243 40.5281 31.003 40.7449 30.2113C41.5211 27.2769 41.5267 21.1888 41.5267 21.1888C41.5267 21.1888 41.5642 15.0669 40.7636 12.1306ZM19.0192 26.7594L19.0286 15.5094L28.7917 21.1438L19.0192 26.7594Z" fill="#F7D7FF"/>
</g>
</svg>
