<svg width="29" height="27" viewBox="0 0 29 27" fill="none" xmlns="http://www.w3.org/2000/svg">
<path id="Vector" d="M2.14816 6.73313C2.14816 9.02506 2.92607 10.6788 4.4585 11.6499C5.715 12.4476 7.17104 12.5673 7.92869 12.5673C8.11264 12.5673 8.26074 12.5581 8.36363 12.5519C8.36363 12.5519 8.12355 14.0922 9.2834 15.614H9.2304C7.22093 15.614 0.667175 16.0266 0.667175 21.3315C0.667175 26.7254 6.68622 27 7.89439 27C7.98949 27 8.04561 26.9969 8.04561 26.9969C8.05808 26.9969 8.14382 27 8.29192 27C9.06671 27 11.0699 26.9049 12.9297 26.0136C15.343 24.863 16.5667 22.8549 16.5667 20.0536C16.5667 17.3475 14.7023 15.7367 13.3413 14.5585C12.5104 13.839 11.7917 13.2193 11.7917 12.6164C11.7917 12.0027 12.3171 11.541 12.9796 10.9565C14.0537 10.013 15.067 8.66761 15.067 6.12409C15.067 3.88892 14.7724 2.38705 12.9562 1.43438C13.1449 1.33926 13.8152 1.27023 14.1457 1.2242C15.1294 1.09227 16.5683 0.941932 16.5683 0.151875V0H9.39876C9.32705 0.00306818 2.14816 0.263864 2.14816 6.73313ZM13.7217 20.5599C13.8589 22.7168 11.9835 24.3077 9.16648 24.5086C6.30584 24.7157 3.95185 23.4486 3.81466 21.2932C3.74763 20.2561 4.21063 19.2436 5.11637 18.4352C6.03458 17.6175 7.29576 17.1112 8.66762 17.0115C8.82975 17.0023 8.99032 16.9931 9.15089 16.9931C11.7995 16.9947 13.5923 18.5257 13.7217 20.5599ZM11.8494 5.2558C12.5525 7.69193 11.4908 10.2355 9.79785 10.7064C9.60296 10.7599 9.40153 10.7867 9.19922 10.7862C7.64964 10.7862 6.11409 9.2429 5.54352 7.11511C5.2255 5.92466 5.252 4.87841 5.61679 3.87511C5.97378 2.88563 6.61918 2.22136 7.42983 1.99585C7.62469 1.94216 7.8258 1.91455 8.03002 1.91455C9.90074 1.91455 11.1042 2.67852 11.8494 5.2558ZM23.9904 10.4318V5.82955H20.8725V10.4318H16.1957V13.5H20.8725V18.1023H23.9904V13.5H28.6672V10.4318H23.9904Z" fill="#D53D5C"/>
</svg>
