<svg width="40" height="40" viewBox="0 0 40 40" fill="none" xmlns="http://www.w3.org/2000/svg">
<g id="bx:bxl-twitter">
<path id="Vector" d="M33.3888 13.3282C33.4105 13.6199 33.4105 13.9099 33.4105 14.1999C33.4105 23.0749 26.6555 33.3016 14.3105 33.3016C10.5072 33.3016 6.97382 32.1999 4.00049 30.2866C4.54049 30.3482 5.06049 30.3699 5.62215 30.3699C8.64381 30.3772 11.5799 29.3668 13.9572 27.5016C12.5562 27.4762 11.1981 27.014 10.0726 26.1795C8.94699 25.3449 8.11013 24.1797 7.67882 22.8466C8.09382 22.9082 8.51049 22.9499 8.94715 22.9499C9.54882 22.9499 10.1538 22.8666 10.7155 22.7216C9.19509 22.4146 7.82794 21.5905 6.84652 20.3894C5.86509 19.1883 5.32998 17.6843 5.33215 16.1332V16.0499C6.22715 16.5482 7.26549 16.8599 8.36549 16.9016C7.44397 16.2892 6.68835 15.4583 6.16605 14.4829C5.64375 13.5075 5.37101 12.418 5.37215 11.3116C5.37215 10.0649 5.70382 8.92158 6.28549 7.92491C7.97239 9.99994 10.0763 11.6975 12.461 12.9077C14.8458 14.1178 17.4581 14.8136 20.1288 14.9499C20.0255 14.4499 19.9622 13.9316 19.9622 13.4116C19.9617 12.5298 20.1351 11.6567 20.4723 10.842C20.8095 10.0273 21.304 9.28703 21.9275 8.66356C22.5509 8.04008 23.2912 7.54559 24.1059 7.20837C24.9206 6.87115 25.7938 6.6978 26.6755 6.69824C28.6088 6.69824 30.3538 7.50824 31.5805 8.81824C33.0834 8.5276 34.5247 7.97895 35.8405 7.19658C35.3395 8.74794 34.2901 10.0634 32.8888 10.8966C34.2218 10.7445 35.5245 10.394 36.7538 9.85658C35.8357 11.1951 34.698 12.3688 33.3888 13.3282Z" fill="#D53D5C"/>
</g>
</svg>
