<svg width="28" height="26" viewBox="0 0 28 26" fill="none" xmlns="http://www.w3.org/2000/svg">
<path id="Vector" d="M20.3005 0C17.8645 0 15.5265 1.134 14.0005 2.926C12.4745 1.134 10.1365 0 7.70049 0C3.38849 0 0.000488281 3.388 0.000488281 7.7C0.000488281 12.992 4.76049 17.304 11.9705 23.856L14.0005 25.69L16.0305 23.842C23.2405 17.304 28.0005 12.992 28.0005 7.7C28.0005 3.388 24.6125 0 20.3005 0ZM14.1405 21.77L14.0005 21.91L13.8605 21.77C7.19649 15.736 2.80049 11.746 2.80049 7.7C2.80049 4.9 4.90049 2.8 7.70049 2.8C9.85649 2.8 11.9565 4.186 12.6985 6.104H15.3165C16.0445 4.186 18.1445 2.8 20.3005 2.8C23.1005 2.8 25.2005 4.9 25.2005 7.7C25.2005 11.746 20.8045 15.736 14.1405 21.77Z" fill="#76607A"/>
</svg>
