<svg width="48" height="48" viewBox="0 0 48 48" fill="none" xmlns="http://www.w3.org/2000/svg">
<g id="bi:collection" clip-path="url(#clip0_161_217)">
<g id="Group">
<path id="Vector" d="M7.50049 10.5C7.10266 10.5 6.72113 10.342 6.43983 10.0607C6.15852 9.77936 6.00049 9.39782 6.00049 9C6.00049 8.60218 6.15852 8.22064 6.43983 7.93934C6.72113 7.65804 7.10266 7.5 7.50049 7.5H40.5005C40.8983 7.5 41.2798 7.65804 41.5611 7.93934C41.8425 8.22064 42.0005 8.60218 42.0005 9C42.0005 9.39782 41.8425 9.77936 41.5611 10.0607C41.2798 10.342 40.8983 10.5 40.5005 10.5H7.50049ZM13.5005 4.5C13.1027 4.5 12.7211 4.34196 12.4398 4.06066C12.1585 3.77936 12.0005 3.39782 12.0005 3C12.0005 2.60218 12.1585 2.22064 12.4398 1.93934C12.7211 1.65804 13.1027 1.5 13.5005 1.5H34.5005C34.8983 1.5 35.2798 1.65804 35.5611 1.93934C35.8425 2.22064 36.0005 2.60218 36.0005 3C36.0005 3.39782 35.8425 3.77936 35.5611 4.06066C35.2798 4.34196 34.8983 4.5 34.5005 4.5H13.5005ZM0.000488281 39C0.000488281 40.1935 0.474594 41.3381 1.31851 42.182C2.16242 43.0259 3.30701 43.5 4.50049 43.5H43.5005C44.694 43.5 45.8386 43.0259 46.6825 42.182C47.5264 41.3381 48.0005 40.1935 48.0005 39V18C48.0005 16.8065 47.5264 15.6619 46.6825 14.818C45.8386 13.9741 44.694 13.5 43.5005 13.5H4.50049C3.30701 13.5 2.16242 13.9741 1.31851 14.818C0.474594 15.6619 0.000488281 16.8065 0.000488281 18L0.000488281 39ZM4.50049 40.5C4.10266 40.5 3.72113 40.342 3.43983 40.0607C3.15852 39.7794 3.00049 39.3978 3.00049 39V18C3.00049 17.6022 3.15852 17.2206 3.43983 16.9393C3.72113 16.658 4.10266 16.5 4.50049 16.5H43.5005C43.8983 16.5 44.2798 16.658 44.5611 16.9393C44.8425 17.2206 45.0005 17.6022 45.0005 18V39C45.0005 39.3978 44.8425 39.7794 44.5611 40.0607C44.2798 40.342 43.8983 40.5 43.5005 40.5H4.50049Z" fill="#908294"/>
</g>
</g>
<defs>
<clipPath id="clip0_161_217">
<rect width="48" height="48" fill="white" transform="translate(0.000488281)"/>
</clipPath>
</defs>
</svg>
