<svg width="48" height="48" viewBox="0 0 48 48" fill="none" xmlns="http://www.w3.org/2000/svg">
<g id="fluent:collections-24-regular">
<g id="Group">
<path id="Vector" d="M22.1323 16.0078L22.5003 15.9978H37.5003C39.1603 15.9977 40.7574 16.6326 41.9641 17.7725C43.1709 18.9123 43.8958 20.4706 43.9903 22.1278L44.0003 22.4978V37.4978C44.0004 39.1581 43.3652 40.7555 42.225 41.9623C41.0848 43.1691 39.5259 43.8939 37.8683 43.9878L37.5003 43.9978H22.5003C20.8401 43.998 19.2427 43.3627 18.0359 42.2225C16.8291 41.0823 16.1043 39.5235 16.0103 37.8658L16.0003 37.4998V22.4998C16.0002 20.8396 16.6354 19.2422 17.7757 18.0354C18.9159 16.8286 20.4747 16.1038 22.1323 16.0098V16.0078ZM37.5003 18.9978H22.5003C21.622 18.9979 20.7757 19.3282 20.1295 19.9232C19.4834 20.5182 19.0846 21.3344 19.0123 22.2098L19.0003 22.4978V37.4978C19.0004 38.3765 19.331 39.2231 19.9264 39.8693C20.5219 40.5155 21.3386 40.914 22.2143 40.9858L22.5003 40.9978H37.5003C38.379 40.9978 39.2256 40.6672 39.8718 40.0718C40.5179 39.4763 40.9165 38.6596 40.9883 37.7838L41.0003 37.4978V22.4978C41.0003 21.5696 40.6316 20.6793 39.9752 20.023C39.3188 19.3666 38.4286 18.9978 37.5003 18.9978V18.9978ZM30.0003 21.9998C30.3982 21.9998 30.7797 22.1579 31.061 22.4392C31.3423 22.7205 31.5003 23.102 31.5003 23.4998V28.4958H36.5003C36.8982 28.4958 37.2797 28.6539 37.561 28.9352C37.8423 29.2165 38.0003 29.598 38.0003 29.9958C38.0003 30.3937 37.8423 30.7752 37.561 31.0565C37.2797 31.3378 36.8982 31.4958 36.5003 31.4958H31.5003V36.4998C31.5003 36.8977 31.3423 37.2792 31.061 37.5605C30.7797 37.8418 30.3982 37.9998 30.0003 37.9998C29.6025 37.9998 29.221 37.8418 28.9397 37.5605C28.6584 37.2792 28.5003 36.8977 28.5003 36.4998V31.4958H23.5003C23.1025 31.4958 22.721 31.3378 22.4397 31.0565C22.1584 30.7752 22.0003 30.3937 22.0003 29.9958C22.0003 29.598 22.1584 29.2165 22.4397 28.9352C22.721 28.6539 23.1025 28.4958 23.5003 28.4958H28.5003V23.4998C28.5003 23.102 28.6584 22.7205 28.9397 22.4392C29.221 22.1579 29.6025 21.9998 30.0003 21.9998ZM31.1643 8.46584L31.2683 8.81984L32.6543 13.9958H29.5483L28.3723 9.59584C28.2535 9.15163 28.0483 8.73518 27.7685 8.3703C27.4886 8.00542 27.1396 7.69926 26.7414 7.46932C26.3432 7.23938 25.9035 7.09016 25.4476 7.0302C24.9917 6.97023 24.5285 7.00069 24.0843 7.11984L9.59633 11.0038C8.75059 11.2306 8.02057 11.7662 7.55035 12.5049C7.08013 13.2435 6.90386 14.1316 7.05633 14.9938L7.12033 15.2898L11.0043 29.7778C11.1865 30.4586 11.57 31.0686 12.1045 31.5279C12.6391 31.9871 13.2999 32.2743 14.0003 32.3518V35.3638C12.7 35.2863 11.4529 34.8202 10.4205 34.0257C9.38819 33.2312 8.61821 32.145 8.21033 30.9078L8.10633 30.5558L4.22433 16.0658C3.79434 14.4626 3.994 12.7556 4.78239 11.2948C5.57077 9.8341 6.88813 8.73032 8.46433 8.20984L8.82033 8.10584L23.3083 4.22384C24.9116 3.79385 26.6186 3.99351 28.0793 4.7819C29.5401 5.57028 30.6439 6.88764 31.1643 8.46384V8.46584Z" fill="#908294"/>
</g>
</g>
</svg>
