<svg width="48" height="48" viewBox="0 0 48 48" fill="none" xmlns="http://www.w3.org/2000/svg">
<g id="clarity:wallet-line">
<path id="Vector" d="M42.6673 19.9997H41.334V11.9997C41.334 11.646 41.1935 11.3069 40.9435 11.0569C40.6934 10.8068 40.3543 10.6663 40.0007 10.6663H8.00067C7.68495 10.6715 7.37765 10.5644 7.13349 10.3642C6.88932 10.164 6.72413 9.88362 6.66734 9.57301V9.09301C6.72413 8.7824 6.88932 8.50202 7.13349 8.30181C7.37765 8.10159 7.68495 7.99452 8.00067 7.99967H39.4407C39.7943 7.99967 40.1334 7.8592 40.3835 7.60915C40.6335 7.3591 40.774 7.01996 40.774 6.66634C40.774 6.31272 40.6335 5.97358 40.3835 5.72353C40.1334 5.47348 39.7943 5.33301 39.4407 5.33301H8.00067C6.9398 5.33301 5.92239 5.75444 5.17224 6.50458C4.4221 7.25473 4.00067 8.27214 4.00067 9.33301C3.99131 9.49287 3.99131 9.65314 4.00067 9.81301V37.2397C4.00591 37.9576 4.15249 38.6674 4.43206 39.3286C4.71164 39.9899 5.11872 40.5896 5.63006 41.0935C6.14141 41.5974 6.747 41.9957 7.41227 42.2655C8.07753 42.5354 8.78944 42.6716 9.50734 42.6663H40.0007C40.3543 42.6663 40.6934 42.5259 40.9435 42.2758C41.1935 42.0258 41.334 41.6866 41.334 41.333V33.333H42.6673C43.021 33.333 43.3601 33.1925 43.6101 32.9425C43.8602 32.6924 44.0007 32.3533 44.0007 31.9997V21.333C44.0007 20.9794 43.8602 20.6402 43.6101 20.3902C43.3601 20.1401 43.021 19.9997 42.6673 19.9997ZM38.6673 39.9997H9.50734C8.76574 40.0068 8.05131 39.7209 7.51946 39.204C6.98761 38.6871 6.68136 37.9812 6.66734 37.2397V13.173C7.10014 13.2984 7.55049 13.3525 8.00067 13.333H38.6673V19.9997H29.334C27.5659 19.9997 25.8702 20.702 24.62 21.9523C23.3697 23.2025 22.6673 24.8982 22.6673 26.6663C22.6673 28.4344 23.3697 30.1301 24.62 31.3804C25.8702 32.6306 27.5659 33.333 29.334 33.333H38.6673V39.9997ZM41.334 30.6663H29.334C28.2731 30.6663 27.2557 30.2449 26.5056 29.4948C25.7554 28.7446 25.334 27.7272 25.334 26.6663C25.334 25.6055 25.7554 24.5881 26.5056 23.8379C27.2557 23.0878 28.2731 22.6663 29.334 22.6663H41.334V30.6663Z" fill="#908294"/>
<path id="Vector_2" d="M30.6804 28.667C31.785 28.667 32.6804 27.7716 32.6804 26.667C32.6804 25.5624 31.785 24.667 30.6804 24.667C29.5759 24.667 28.6804 25.5624 28.6804 26.667C28.6804 27.7716 29.5759 28.667 30.6804 28.667Z" fill="#908294"/>
</g>
</svg>
