<svg width="173" height="12" viewBox="0 0 173 12" fill="none" xmlns="http://www.w3.org/2000/svg">
<path id="Vector 2" d="M1.00049 5C0.448204 5 0.00048833 5.44772 0.000488281 6C0.000488233 6.55228 0.448203 7 1.00049 7L1.00049 5ZM172.774 6.00002L167 0.226512L161.227 6.00001L167 11.7735L172.774 6.00002ZM6.92906 7C7.48134 7 7.92906 6.55229 7.92906 6C7.92906 5.44772 7.48134 5 6.92906 5L6.92906 7ZM18.7862 5C18.2339 5 17.7862 5.44772 17.7862 6C17.7862 6.55229 18.2339 7 18.7862 7L18.7862 5ZM30.6433 7C31.1956 7 31.6433 6.55229 31.6433 6C31.6433 5.44772 31.1956 5 30.6433 5L30.6433 7ZM42.5005 5C41.9482 5 41.5005 5.44772 41.5005 6C41.5005 6.55229 41.9482 7 42.5005 7L42.5005 5ZM54.3576 7C54.9099 7 55.3576 6.55229 55.3576 6C55.3576 5.44772 54.9099 5 54.3576 5L54.3576 7ZM66.2148 5.00001C65.6625 5.00001 65.2148 5.44772 65.2148 6.00001C65.2148 6.55229 65.6625 7.00001 66.2148 7.00001L66.2148 5.00001ZM78.0719 7.00001C78.6242 7.00001 79.0719 6.55229 79.0719 6.00001C79.0719 5.44772 78.6242 5.00001 78.0719 5.00001L78.0719 7.00001ZM89.9291 5.00001C89.3768 5.00001 88.9291 5.44772 88.9291 6.00001C88.9291 6.55229 89.3768 7.00001 89.9291 7.00001L89.9291 5.00001ZM101.786 7.00001C102.338 7.00001 102.786 6.55229 102.786 6.00001C102.786 5.44772 102.338 5.00001 101.786 5.00001L101.786 7.00001ZM113.643 5.00001C113.091 5.00001 112.643 5.44772 112.643 6.00001C112.643 6.55229 113.091 7.00001 113.643 7.00001L113.643 5.00001ZM125.5 7.00001C126.053 7.00001 126.5 6.5523 126.5 6.00001C126.5 5.44773 126.053 5.00001 125.5 5.00001L125.5 7.00001ZM137.358 5.00001C136.805 5.00001 136.358 5.44773 136.358 6.00001C136.358 6.5523 136.805 7.00001 137.358 7.00001L137.358 5.00001ZM149.215 7.00001C149.767 7.00001 150.215 6.5523 150.215 6.00001C150.215 5.44773 149.767 5.00001 149.215 5.00001L149.215 7.00001ZM161.072 5.00001C160.52 5.00001 160.072 5.44773 160.072 6.00001C160.072 6.5523 160.52 7.00001 161.072 7.00001L161.072 5.00001ZM1.00049 7L6.92906 7L6.92906 5L1.00049 5L1.00049 7ZM18.7862 7L30.6433 7L30.6433 5L18.7862 5L18.7862 7ZM42.5005 7L54.3576 7L54.3576 5L42.5005 5L42.5005 7ZM66.2148 7.00001L78.0719 7.00001L78.0719 5.00001L66.2148 5.00001L66.2148 7.00001ZM89.9291 7.00001L101.786 7.00001L101.786 5.00001L89.9291 5.00001L89.9291 7.00001ZM113.643 7.00001L125.5 7.00001L125.5 5.00001L113.643 5.00001L113.643 7.00001ZM137.358 7.00001L149.215 7.00001L149.215 5.00001L137.358 5.00001L137.358 7.00001ZM161.072 7.00001L167 7.00001L167 5.00001L161.072 5.00001L161.072 7.00001Z" fill="#794187"/>
</svg>
